<svg width="101" height="26" viewBox="0 0 101 26" fill="none" xmlns="http://www.w3.org/2000/svg">
<path d="M13.004 0.799998C11.276 0.799998 9.62 1.088 8.036 1.808C6.488 2.492 5.12 3.464 3.932 4.688C1.628 7.1 0.44 10.016 0.44 13.4C0.44 16.172 1.268 18.692 2.924 20.924C4.112 22.508 5.552 23.696 7.316 24.632C9.116 25.532 10.988 26 13.004 26C14.66 26 16.244 25.676 17.756 25.064C19.268 24.416 20.6 23.552 21.752 22.472C21.752 22.472 21.788 22.436 21.788 22.4C22.364 21.86 22.616 21.212 22.616 20.492C22.616 19.7 22.364 19.088 21.824 18.584C21.32 18.044 20.672 17.792 19.916 17.792C19.196 17.792 18.584 18.008 18.08 18.512C18.08 18.512 18.044 18.512 18.008 18.548C18.008 18.548 17.972 18.584 17.936 18.62C16.568 19.916 14.948 20.6 13.004 20.6C10.916 20.6 9.152 19.808 7.712 18.26C6.488 16.856 5.84 15.236 5.84 13.4C5.84 11.708 6.38 10.196 7.388 8.9C8.072 8.036 8.9 7.388 9.872 6.92C10.88 6.416 11.924 6.2 13.004 6.2C14.228 6.2 15.38 6.488 16.424 7.064C16.388 6.848 16.352 6.596 16.352 6.38C16.352 5.912 16.46 5.48 16.604 5.084C16.892 4.4 17.324 3.86 17.9 3.428C18.476 3.032 19.124 2.816 19.808 2.816C17.756 1.448 15.488 0.799998 13.004 0.799998ZM19.88 3.644C19.34 3.644 18.836 3.788 18.368 4.112C17.864 4.436 17.54 4.904 17.324 5.48C17.252 5.768 17.18 6.056 17.18 6.344C17.18 6.848 17.324 7.28 17.576 7.712C17.72 7.892 17.864 8.072 18.044 8.288C18.584 8.792 19.196 9.044 19.916 9.044C20.672 9.044 21.32 8.756 21.824 8.252C22.364 7.712 22.616 7.064 22.616 6.344C22.616 5.876 22.508 5.444 22.292 5.048C22.292 5.012 22.256 4.94 22.184 4.868C22.112 4.76 22.076 4.688 22.004 4.652C21.5 3.968 20.78 3.644 19.916 3.644H19.88ZM25.7593 10.808C26.1193 10.484 26.4793 10.232 26.9113 10.088C27.3433 9.908 27.7393 9.836 28.1713 9.836C28.7473 9.836 29.2513 9.944 29.7553 10.232C30.3313 10.52 30.7993 10.916 31.1593 11.456C31.5913 9.908 32.4553 8.648 33.7153 7.676C35.0113 6.668 36.4513 6.2 38.0353 6.2C40.0513 6.2 41.7433 6.848 43.1113 8.288C44.5153 9.692 45.1992 11.384 45.1992 13.4C45.1992 15.38 44.5153 17.036 43.1113 18.476C41.7433 19.88 40.0513 20.6 38.0353 20.6C36.4513 20.6 35.0113 20.132 33.7153 19.16C32.4193 18.152 31.5553 16.892 31.1233 15.344C30.8713 15.74 30.5473 16.1 30.1153 16.388C29.5393 16.748 28.8913 16.928 28.1713 16.928C27.6673 16.928 27.1993 16.82 26.6953 16.64C26.3353 16.46 26.0473 16.244 25.7593 15.992C26.3713 18.872 27.8113 21.248 30.1153 23.156C32.4193 25.028 35.0833 26 38.0353 26C40.3393 26 42.3913 25.424 44.3353 24.308C46.2793 23.156 47.7913 21.68 48.9073 19.736C50.0593 17.792 50.5993 15.668 50.5993 13.4C50.5993 11.096 50.0953 9.044 48.9433 7.1C47.8273 5.156 46.3153 3.608 44.3712 2.492C42.4273 1.34 40.3393 0.799998 38.0353 0.799998C35.0833 0.799998 32.4553 1.7 30.1513 3.608C27.8473 5.48 26.4072 7.892 25.7593 10.808ZM28.1713 10.7C27.3793 10.7 26.7313 10.988 26.1913 11.564C25.9033 11.852 25.7233 12.176 25.5793 12.608C25.5073 12.86 25.4713 13.148 25.4713 13.436C25.4713 13.688 25.5073 13.94 25.5793 14.192C25.6873 14.516 25.8313 14.804 26.0473 15.092C26.5873 15.74 27.3073 16.1 28.1713 16.1C29.0353 16.1 29.7553 15.776 30.2593 15.128C30.5473 14.804 30.7273 14.48 30.7993 14.12C30.8713 13.868 30.8713 13.616 30.8713 13.4C30.8713 13.184 30.8713 12.968 30.7993 12.788C30.7273 12.32 30.5113 11.924 30.2233 11.6C29.6833 10.988 28.9993 10.7 28.1713 10.7ZM56.1908 0.799998H56.1548C55.3628 0.799998 54.6788 1.088 54.1388 1.736C53.7068 2.24 53.4908 2.816 53.4908 3.464V3.5V7.316C53.5268 7.928 53.7428 8.468 54.1748 8.972C54.7148 9.548 55.3988 9.872 56.1908 9.872C56.9108 9.872 57.4868 9.62 57.9908 9.188C58.6028 8.648 58.8908 8 58.8908 7.244V6.2H66.2708C66.3428 6.2 66.4148 6.2 66.4508 6.2C66.9908 6.2 67.4588 6.38 67.8188 6.74C68.3588 7.172 68.6108 7.748 68.6108 8.432C68.6108 9.188 68.3228 9.8 67.7108 10.268C67.3508 10.52 66.9548 10.664 66.4868 10.7C66.4508 10.7 66.3788 10.7 66.2348 10.7H58.8908H57.4508L56.1908 10.664C55.6508 10.664 55.1468 10.52 54.6428 10.304C54.2108 10.088 53.8148 9.8 53.4908 9.44V23.228V23.3C53.4908 24.02 53.7428 24.668 54.2468 25.208C54.8228 25.712 55.4708 26 56.1908 26C56.9828 26 57.6668 25.712 58.1708 25.136C58.6748 24.632 58.8908 24.02 58.8908 23.3V23.264V16.1H63.5708C63.6428 16.172 63.6788 16.244 63.7148 16.316L63.7508 16.352L69.4028 23.228C69.4388 22.22 69.8348 21.356 70.5548 20.708C71.2388 20.06 72.0308 19.772 72.9668 19.772C73.1828 19.772 73.3988 19.772 73.5788 19.808L69.8348 15.272C70.6268 14.84 71.3108 14.336 71.8868 13.724C73.3268 12.212 74.0108 10.448 74.0108 8.432C74.0108 6.488 73.3628 4.796 72.0668 3.356C70.6628 1.772 68.8988 0.907999 66.7748 0.799998C66.6308 0.799998 66.4508 0.799998 66.1988 0.799998H66.1628H56.1908ZM72.9668 20.6C72.2468 20.6 71.5988 20.852 71.0588 21.356C70.5548 21.86 70.2668 22.508 70.2668 23.3C70.2668 23.732 70.3748 24.128 70.5188 24.488C70.6988 24.812 70.9508 25.1 71.2748 25.388C71.7068 25.712 72.1748 25.928 72.6788 26C72.7868 26 72.8948 26 72.9668 26C73.6148 26 74.1908 25.784 74.6588 25.388C75.3428 24.812 75.6668 24.128 75.6668 23.3C75.6668 22.724 75.5228 22.22 75.1988 21.788C75.0188 21.5 74.8388 21.32 74.6948 21.212C74.1908 20.78 73.6148 20.6 72.9668 20.6ZM81.222 0.799998H81.186C80.394 0.799998 79.71 1.124 79.17 1.772C78.738 2.24 78.522 2.816 78.522 3.5V7.316C78.558 7.964 78.774 8.504 79.206 8.972C79.746 9.548 80.43 9.872 81.222 9.872C81.942 9.872 82.518 9.62 83.022 9.188C83.634 8.648 83.922 8 83.922 7.244V6.2H92.958C93.03 6.2 93.102 6.2 93.138 6.2C93.678 6.2 94.146 6.38 94.506 6.74C95.046 7.172 95.298 7.748 95.298 8.432C95.298 9.188 95.01 9.8 94.398 10.268C94.038 10.52 93.642 10.664 93.174 10.7C93.138 10.7 93.066 10.7 92.922 10.7H83.922H82.482L81.222 10.664C80.682 10.664 80.178 10.52 79.674 10.304C79.242 10.088 78.846 9.8 78.522 9.44V23.228V23.3C78.522 24.02 78.774 24.668 79.278 25.208C79.854 25.712 80.502 26 81.222 26C82.014 26 82.698 25.712 83.202 25.136C83.706 24.632 83.922 24.02 83.922 23.3V23.264V16.1H92.994H93.03C93.066 16.1 93.102 16.1 93.102 16.1C95.262 16.064 97.098 15.272 98.574 13.724C100.014 12.212 100.698 10.448 100.698 8.432C100.698 6.488 100.05 4.796 98.754 3.356C97.35 1.772 95.586 0.907999 93.462 0.835998C93.318 0.799998 93.138 0.799998 92.886 0.799998H92.814H81.222Z" fill="#0099FF"/>
</svg>
