<svg width="43" height="43" viewBox="0 0 43 43" fill="none" xmlns="http://www.w3.org/2000/svg">
<path d="M2.00781 14.7632H40.9945V29.5265H2.00781V14.7632Z" fill="#83BF4F"/>
<path d="M2.00781 29.5269H40.9945V32.2502H2.00781V29.5269Z" fill="#FFCE31"/>
<path d="M38.2711 12.1113H4.73115C3.22615 12.1113 2.00781 13.3297 2.00781 14.8347H40.9945C40.9945 13.3297 39.7761 12.1113 38.2711 12.1113Z" fill="#3E4347"/>
<path d="M16.7695 9.38818H26.1579V12.1115H16.7695V9.38818Z" fill="#3E4347"/>
<path d="M0 0H43V1.36167H0V0Z" fill="#3E4347"/>
<path d="M15.4828 27.0899H8.74609V18.9915C8.74609 16.6265 15.4828 16.6265 15.4828 18.9915V27.0899Z" fill="#3E4347"/>
<path d="M14.1188 20.1381C14.1188 18.4898 10.1055 18.4898 10.1055 20.1381V25.5131H14.1188V20.1381Z" fill="#B4D7EE"/>
<path d="M7.38281 28.4518H2.00781V16.5552C2.00781 16.5552 7.38281 16.6985 7.38281 19.6368V28.4518Z" fill="#3E4347"/>
<path d="M6.02114 20.7833C6.02114 18.1316 2.00781 18.2033 2.00781 18.2033V26.875H6.02114V20.7833Z" fill="#B4D7EE"/>
<path d="M23.5062 27.0899H16.7695V18.9915C16.7695 16.6265 23.5062 16.6265 23.5062 18.9915V27.0899Z" fill="#3E4347"/>
<path d="M22.1461 20.1381C22.1461 18.4898 18.1328 18.4898 18.1328 20.1381V25.5131H22.1461V20.1381Z" fill="#B4D7EE"/>
<path d="M31.6078 27.0899H24.8711V18.9915C24.8711 16.6265 31.6078 16.6265 31.6078 18.9915V27.0899Z" fill="#3E4347"/>
<path d="M30.2438 20.1381C30.2438 18.4898 26.2305 18.4898 26.2305 20.1381V25.5131H30.2438V20.1381Z" fill="#B4D7EE"/>
<path d="M39.6312 27.0899H32.8945V18.9915C32.8945 16.6265 39.6312 16.6265 39.6312 18.9915V27.0899Z" fill="#3E4347"/>
<path d="M38.2711 20.1381C38.2711 18.4898 34.2578 18.4898 34.2578 20.1381V25.5131H38.2711V20.1381Z" fill="#B4D7EE"/>
<path d="M2.72656 9.67529H5.01989V13.6886H2.72656V9.67529Z" fill="#3E4347"/>
<path d="M8.24219 11.1084H14.7639V13.7601H8.24219V11.1084Z" fill="#3E4347"/>
<path d="M30.0312 10.7505H36.5529V13.4022H30.0312V10.7505Z" fill="#3E4347"/>
<path d="M0 38.9863H43V42.9997H0V38.9863Z" fill="#94989B"/>
<path d="M0 39.6313H43V40.2763H0V39.6313Z" fill="#E6E6E6"/>
<path d="M20.0352 9.9311L23.9009 3.64307L24.4505 3.9799L20.5848 10.2686L20.0352 9.9311Z" fill="#3E4347"/>
<path d="M23.9727 10.8669L27.8419 4.58105L28.8797 5.21889L25.0097 11.5055L23.9727 10.8669Z" fill="#3E4347"/>
<path d="M21.3555 1.06842L21.8636 0.671387L27.0687 7.33638L26.5599 7.7327L21.3555 1.06842Z" fill="#3E4347"/>
<path d="M23.8711 0.927596L24.8873 0.132812L28.8612 5.21398L27.845 6.00804L23.8711 0.927596Z" fill="#3E4347"/>
<path d="M2.0062 32.25C2.0062 32.25 0.644531 32.25 0.644531 34.2567V36.9083H40.9928V32.25H2.0062Z" fill="#699635"/>
<path d="M0.644531 35.833H40.9928V36.9797H0.644531V35.833Z" fill="#3E4347"/>
<path d="M12.1144 34.2563H5.37776L3.37109 36.9797H14.1211L12.1144 34.2563Z" fill="#63686B"/>
<path d="M6.38167 38.9865C7.48992 38.9865 8.38833 38.0881 8.38833 36.9798C8.38833 35.8716 7.48992 34.9731 6.38167 34.9731C5.27341 34.9731 4.375 35.8716 4.375 36.9798C4.375 38.0881 5.27341 38.9865 6.38167 38.9865Z" fill="#3E4347"/>
<path d="M6.37937 37.625C6.7356 37.625 7.02437 37.3362 7.02437 36.98C7.02437 36.6237 6.7356 36.335 6.37937 36.335C6.02315 36.335 5.73438 36.6237 5.73438 36.98C5.73438 37.3362 6.02315 37.625 6.37937 37.625Z" fill="#94989B"/>
<path d="M11.1082 38.9865C12.2165 38.9865 13.1149 38.0881 13.1149 36.9798C13.1149 35.8716 12.2165 34.9731 11.1082 34.9731C9.99998 34.9731 9.10156 35.8716 9.10156 36.9798C9.10156 38.0881 9.99998 38.9865 11.1082 38.9865Z" fill="#3E4347"/>
<path d="M11.1098 37.625C11.4661 37.625 11.7548 37.3362 11.7548 36.98C11.7548 36.6237 11.4661 36.335 11.1098 36.335C10.7536 36.335 10.4648 36.6237 10.4648 36.98C10.4648 37.3362 10.7536 37.625 11.1098 37.625Z" fill="#94989B"/>
<path d="M37.6261 34.2563H30.8895L28.8828 36.9797H39.6328L37.6261 34.2563Z" fill="#63686B"/>
<path d="M31.8895 38.9865C32.9977 38.9865 33.8961 38.0881 33.8961 36.9798C33.8961 35.8716 32.9977 34.9731 31.8895 34.9731C30.7812 34.9731 29.8828 35.8716 29.8828 36.9798C29.8828 38.0881 30.7812 38.9865 31.8895 38.9865Z" fill="#3E4347"/>
<path d="M36.6199 38.9865C37.7282 38.9865 38.6266 38.0881 38.6266 36.9798C38.6266 35.8716 37.7282 34.9731 36.6199 34.9731C35.5117 34.9731 34.6133 35.8716 34.6133 36.9798C34.6133 38.0881 35.5117 38.9865 36.6199 38.9865Z" fill="#3E4347"/>
<path d="M31.8911 37.6254C32.2473 37.6254 32.5361 37.3367 32.5361 36.9804C32.5361 36.6242 32.2473 36.3354 31.8911 36.3354C31.5349 36.3354 31.2461 36.6242 31.2461 36.9804C31.2461 37.3367 31.5349 37.6254 31.8911 37.6254Z" fill="#94989B"/>
<path d="M36.6216 37.6254C36.9778 37.6254 37.2666 37.3367 37.2666 36.9804C37.2666 36.6242 36.9778 36.3354 36.6216 36.3354C36.2653 36.3354 35.9766 36.6242 35.9766 36.9804C35.9766 37.3367 36.2653 37.6254 36.6216 37.6254Z" fill="#94989B"/>
</svg>
